#N canvas 119 26 1135 684 10;
#N canvas 221 103 456 430 drum 0;
#X obj 10 276 unit_drum~, f 35;
#X obj 14 27 vsl 15 128 0 1 0 1 empty empty empty 0 -9 0 10 -262144
-1 -1 2400 1;
#X obj 57 27 vsl 15 128 -2 2 0 1 empty empty empty 0 -9 0 10 -262144
-1 -1 1200 1;
#X obj 36 27 vsl 15 128 -2 3 0 1 empty empty empty 0 -9 0 10 -262144
-1 -1 12700 1;
#X obj 80 27 vsl 15 128 0 1 0 1 empty empty empty 0 -9 0 10 -262144
-1 -1 6100 1;
#X obj 121 27 vsl 15 128 0 1 0 1 empty empty empty 0 -9 0 10 -262144
-1 -1 2200 1;
#X obj 162 27 vsl 15 128 0 1 0 1 empty empty empty 0 -9 0 10 -262144
-1 -1 400 1;
#X obj 142 144 tgl 15 1 empty empty empty 17 7 0 10 -262144 -1 -1 1
1;
#X obj 9 243 inlet~;
#X text 14 162 Dec;
#X text 36 162 P1;
#X text 57 162 P2;
#X text 80 162 Swe;
#X text 121 162 Noise;
#X text 162 162 Lev;
#X obj 11 308 outlet~;
#X connect 0 0 15 0;
#X connect 1 0 0 1;
#X connect 2 0 0 3;
#X connect 3 0 0 2;
#X connect 4 0 0 4;
#X connect 5 0 0 5;
#X connect 6 0 0 7;
#X connect 7 0 0 6;
#X connect 8 0 0 0;
#X coords 0 -1 1 1 220 180 1 0 0;
#X restore 28 145 pd drum;
#X obj 28 101 midi_gates~, f 51;
#X obj 81 788 dac~;
#X obj 87 9 notein, f 10;
#X msg 87 56 noteOn \$1 \$2 \$3;
#X obj 87 34 pack f f f;
#X obj 28 58 sig~;
#X obj 28 9 loadbang;
#X msg 28 34 9;
#N canvas 221 103 456 430 drum 0;
#X obj 11 274 unit_drum~, f 35;
#X obj 14 27 vsl 15 128 0 1 0 1 empty empty empty 0 -9 0 10 -262144
-1 -1 300 1;
#X obj 57 27 vsl 15 128 -2 2 0 1 empty empty empty 0 -9 0 10 -262144
-1 -1 8200 1;
#X obj 36 27 vsl 15 128 -2 3 0 1 empty empty empty 0 -9 0 10 -262144
-1 -1 4800 1;
#X obj 80 27 vsl 15 128 0 1 0 1 empty empty empty 0 -9 0 10 -262144
-1 -1 800 1;
#X obj 121 27 vsl 15 128 0 1 0 1 empty empty empty 0 -9 0 10 -262144
-1 -1 4100 1;
#X obj 162 27 vsl 15 128 0 1 0 1 empty empty empty 0 -9 0 10 -262144
-1 -1 1400 1;
#X obj 142 144 tgl 15 1 empty empty empty 17 7 0 10 -262144 -1 -1 0
1;
#X obj 9 243 inlet~;
#X text 14 162 Dec;
#X text 36 162 P1;
#X text 57 162 P2;
#X text 80 162 Swe;
#X text 121 162 Noise;
#X text 162 162 Lev;
#X obj 10 305 outlet~;
#X connect 0 0 15 0;
#X connect 1 0 0 1;
#X connect 2 0 0 3;
#X connect 3 0 0 2;
#X connect 4 0 0 4;
#X connect 5 0 0 5;
#X connect 6 0 0 7;
#X connect 7 0 0 6;
#X connect 8 0 0 0;
#X coords 0 -1 1 1 220 180 1 0 0;
#X restore 259 146 pd drum;
#X obj 28 336 s~ mix1;
#X obj 259 337 s~ mix2;
#X obj 35 710 +~;
#X obj 25 674 r~ mix1;
#X obj 83 674 r~ mix2;
#N canvas 221 103 456 430 drum 0;
#X obj 11 274 unit_drum~, f 35;
#X obj 14 27 vsl 15 128 0 1 0 1 empty empty empty 0 -9 0 10 -262144
-1 -1 0 1;
#X obj 57 27 vsl 15 128 -2 2 0 1 empty empty empty 0 -9 0 10 -262144
-1 -1 12700 1;
#X obj 36 27 vsl 15 128 -2 3 0 1 empty empty empty 0 -9 0 10 -262144
-1 -1 12700 1;
#X obj 80 27 vsl 15 128 0 1 0 1 empty empty empty 0 -9 0 10 -262144
-1 -1 12700 1;
#X obj 121 27 vsl 15 128 0 1 0 1 empty empty empty 0 -9 0 10 -262144
-1 -1 11000 1;
#X obj 162 27 vsl 15 128 0 1 0 1 empty empty empty 0 -9 0 10 -262144
-1 -1 700 1;
#X obj 142 144 tgl 15 1 empty empty empty 17 7 0 10 -262144 -1 -1 1
1;
#X obj 9 243 inlet~;
#X text 14 162 Dec;
#X text 36 162 P1;
#X text 57 162 P2;
#X text 80 162 Swe;
#X text 121 162 Noise;
#X text 162 162 Lev;
#X obj 10 305 outlet~;
#X connect 0 0 15 0;
#X connect 1 0 0 1;
#X connect 2 0 0 3;
#X connect 3 0 0 2;
#X connect 4 0 0 4;
#X connect 5 0 0 5;
#X connect 6 0 0 7;
#X connect 7 0 0 6;
#X connect 8 0 0 0;
#X coords 0 -1 1 1 220 180 1 0 0;
#X restore 493 144 pd drum;
#X obj 493 335 s~ mix3;
#X obj 144 712 +~;
#X obj 134 676 r~ mix3;
#X obj 192 676 r~ mix4;
#X obj 85 748 +~;
#N canvas 221 103 456 430 drum 0;
#X obj 11 274 unit_drum~, f 35;
#X obj 14 27 vsl 15 128 0 1 0 1 empty empty empty 0 -9 0 10 -262144
-1 -1 1400 1;
#X obj 57 27 vsl 15 128 -2 2 0 1 empty empty empty 0 -9 0 10 -262144
-1 -1 3900 1;
#X obj 36 27 vsl 15 128 -2 3 0 1 empty empty empty 0 -9 0 10 -262144
-1 -1 7700 1;
#X obj 80 27 vsl 15 128 0 1 0 1 empty empty empty 0 -9 0 10 -262144
-1 -1 11500 1;
#X obj 121 27 vsl 15 128 0 1 0 1 empty empty empty 0 -9 0 10 -262144
-1 -1 2700 1;
#X obj 162 27 vsl 15 128 0 1 0 1 empty empty empty 0 -9 0 10 -262144
-1 -1 800 1;
#X obj 142 144 tgl 15 1 empty empty empty 17 7 0 10 -262144 -1 -1 0
1;
#X obj 9 243 inlet~;
#X text 14 162 Dec;
#X text 36 162 P1;
#X text 57 162 P2;
#X text 80 162 Swe;
#X text 121 162 Noise;
#X text 162 162 Lev;
#X obj 10 305 outlet~;
#X connect 0 0 15 0;
#X connect 1 0 0 1;
#X connect 2 0 0 3;
#X connect 3 0 0 2;
#X connect 4 0 0 4;
#X connect 5 0 0 5;
#X connect 6 0 0 7;
#X connect 7 0 0 6;
#X connect 8 0 0 0;
#X coords 0 -1 1 1 220 180 1 0 0;
#X restore 725 143 pd drum;
#X obj 725 334 s~ mix4;
#X connect 0 0 10 0;
#X connect 1 0 0 0;
#X connect 1 1 9 0;
#X connect 1 2 15 0;
#X connect 1 3 21 0;
#X connect 3 0 5 0;
#X connect 3 1 5 1;
#X connect 3 2 5 2;
#X connect 4 0 1 0;
#X connect 5 0 4 0;
#X connect 6 0 1 0;
#X connect 7 0 8 0;
#X connect 8 0 6 0;
#X connect 9 0 11 0;
#X connect 12 0 20 0;
#X connect 13 0 12 0;
#X connect 14 0 12 1;
#X connect 15 0 16 0;
#X connect 17 0 20 1;
#X connect 18 0 17 0;
#X connect 19 0 17 1;
#X connect 20 0 2 1;
#X connect 20 0 2 0;
#X connect 21 0 22 0;
