#N canvas 741 53 753 671 10;
#X obj 24 411 osc_sin~;
#N canvas 0 22 450 278 (subpatch) 0;
#X array notes 16 float 3;
#A 0 0.223571 0.236428 0.268571 0.292142 0.312499 0.332857 0.255714
0.373571 0.270714 0.386428 0.287857 0.390713 0.262143 0.420713 0.422856
0.26;
#X coords 0 0.5 16 0.2 200 140 1 0 0;
#X restore 21 34 graph;
#X obj 609 173 tabread notes;
#X obj 607 92 + 1;
#X obj 607 64 i;
#X obj 608 121 % 16;
#X floatatom 609 150 5 0 0 0 - - -, f 5;
#X obj 607 13 tgl 15 0 empty empty empty 17 7 0 10 -262144 -1 -1 1
1;
#X obj 607 36 metro 200;
#X floatatom 610 197 5 0 0 0 - - -, f 5;
#X obj 611 219 s cv;
#X obj 23 382 r cv;
#X obj 42 233 vsl 15 128 0 1 0 0 empty empty empty 0 -9 0 10 -262144
-1 -1 0 1;
#X obj 27 487 *~;
#X obj 135 636 dac~;
#X obj 50 527 +~;
#X obj 136 605 *~ 0.5;
#X obj 101 382 r cv;
#X obj 116 236 vsl 15 128 0 1 0 0 empty empty empty 0 -9 0 10 -262144
-1 -1 0 1;
#X obj 102 484 *~;
#X obj 102 410 osc_saw~;
#N canvas 0 22 450 278 (subpatch) 0;
#X array scope 500 float 2;
#X coords 0 1 500 -1 200 140 1;
#X restore 234 32 graph;
#X obj 23 635 tabwrite~ scope;
#X obj 24 589 tgl 15 0 empty empty empty 17 7 0 10 -262144 -1 -1 1
1;
#X obj 175 383 r cv;
#X obj 193 233 vsl 15 128 0 1 0 0 empty empty empty 0 -9 0 10 -262144
-1 -1 0 1;
#X obj 177 477 *~;
#X obj 176 406 osc_triangle~;
#X obj 237 530 +~;
#X obj 135 552 +~;
#X obj 23 609 metro 100;
#X obj 275 376 r cv;
#X obj 294 237 vsl 15 128 0 1 0 0 empty empty empty 0 -9 0 10 -262144
-1 -1 0 1;
#X obj 276 479 *~;
#X obj 275 403 osc_wave~;
#X obj 135 576 +~;
#X obj 353 374 r cv;
#X obj 389 231 vsl 15 128 0 1 0 0 empty empty empty 0 -9 0 10 -262144
-1 -1 0 1;
#X obj 351 475 *~;
#X obj 353 404 osc_phd~;
#X obj 355 234 vsl 15 128 0 3 0 0 empty empty empty 0 -9 0 10 -262144
-1 -1 12700 1;
#X obj 435 365 r cv;
#X obj 478 239 vsl 15 128 0 1 0 0 empty empty empty 0 -9 0 10 -262144
-1 -1 0 1;
#X obj 440 477 *~;
#X obj 434 231 vsl 15 128 0 1 0 0 empty empty empty 0 -9 0 10 -262144
-1 -1 11700 1;
#X obj 437 397 osc_blit~;
#X obj 396 545 +~;
#X obj 458 321 vradio 15 1 0 2 empty empty empty 0 -8 0 10 -262144
-1 -1 1;
#X obj 539 231 vsl 15 128 0 1 0 0 empty empty empty 0 -9 0 10 -262144
-1 -1 12700 1;
#X obj 520 397 osc_noisef~;
#X obj 522 475 *~;
#X obj 389 577 +~;
#X obj 520 359 tgl 15 0 empty empty empty 17 7 0 10 -262144 -1 -1 0
1;
#X connect 0 0 13 0;
#X connect 2 0 9 0;
#X connect 3 0 5 0;
#X connect 4 0 3 0;
#X connect 5 0 4 1;
#X connect 5 0 6 0;
#X connect 6 0 2 0;
#X connect 7 0 8 0;
#X connect 8 0 4 0;
#X connect 9 0 10 0;
#X connect 11 0 0 0;
#X connect 12 0 13 1;
#X connect 13 0 15 0;
#X connect 15 0 29 0;
#X connect 16 0 14 0;
#X connect 16 0 14 1;
#X connect 16 0 22 0;
#X connect 17 0 20 0;
#X connect 18 0 19 1;
#X connect 19 0 15 1;
#X connect 20 0 19 0;
#X connect 23 0 30 0;
#X connect 24 0 27 0;
#X connect 25 0 26 1;
#X connect 26 0 28 0;
#X connect 27 0 26 0;
#X connect 28 0 29 1;
#X connect 29 0 35 0;
#X connect 30 0 22 0;
#X connect 31 0 34 0;
#X connect 32 0 33 1;
#X connect 33 0 28 1;
#X connect 34 0 33 0;
#X connect 35 0 16 0;
#X connect 36 0 39 0;
#X connect 37 0 38 1;
#X connect 38 0 46 0;
#X connect 39 0 38 0;
#X connect 40 0 39 1;
#X connect 41 0 45 0;
#X connect 42 0 43 1;
#X connect 43 0 46 1;
#X connect 44 0 45 1;
#X connect 45 0 43 0;
#X connect 46 0 51 0;
#X connect 47 0 45 2;
#X connect 48 0 50 1;
#X connect 49 0 50 0;
#X connect 50 0 51 1;
#X connect 51 0 35 1;
#X connect 52 0 49 0;
