#N canvas 192 36 998 669 10;
#X floatatom 125 166 5 0 0 0 - - -, f 5;
#X obj 130 294 dac~;
#X obj 23 84 tgl 15 0 empty empty empty 17 7 0 10 -262144 -1 -1 0 1
;
#X obj 124 50 tgl 15 0 empty empty empty 17 7 0 10 -262144 -1 -1 1
1;
#X obj 22 141 metro 500;
#X obj 124 71 metro 200;
#X obj 22 113 sel 1;
#X obj 300 375 unit_drum~, f 35;
#X obj 348 34 vsl 15 128 0 127 0 1 empty empty empty 0 -9 0 10 -262144
-1 -1 3300 1;
#X obj 370 34 vsl 15 128 0 127 0 1 empty empty empty 0 -9 0 10 -262144
-1 -1 4100 1;
#X obj 411 34 vsl 15 128 0 127 0 1 empty empty empty 0 -9 0 10 -262144
-1 -1 0 1;
#X obj 452 34 vsl 15 128 0 127 0 1 empty empty empty 0 -9 0 10 -262144
-1 -1 0 1;
#X obj 432 151 tgl 15 1 empty empty empty 17 7 0 10 -262144 -1 -1 1
1;
#X text 347 169 P2;
#X text 370 169 Swe;
#X text 411 169 Noise;
#X text 452 169 Lev;
#X msg 301 197 controlChange 30 \$1 0;
#X msg 315 219 controlChange 31 \$1 0;
#X msg 345 240 controlChange 32 \$1 0;
#X msg 363 264 controlChange 33 \$1 0;
#X msg 385 286 controlChange 34 \$1 0;
#X msg 411 309 controlChange 35 \$1 0;
#X msg 438 335 controlChange 36 \$1 0;
#X obj 127 241 *~ 0.9;
#X obj 318 37 vsl 15 128 0 127 0 1 empty empty empty 0 -9 0 10 -262144
-1 -1 12700 1;
#X obj 295 36 vsl 15 128 0 127 0 1 empty empty empty 0 -9 0 10 -262144
-1 -1 1200 1;
#X obj 123 132 tgl 15 0 empty empty empty 17 7 0 10 -262144 -1 -1 0
1;
#X obj 122 103 delay 20;
#N canvas 0 22 450 278 (subpatch) 0;
#X array scope 4000 float 2;
#X coords 0 1 4000 -1 200 140 1 0 0;
#X restore 657 50 graph;
#X obj 300 407 tabwrite~ scope;
#X connect 0 0 7 0;
#X connect 2 0 6 0;
#X connect 3 0 5 0;
#X connect 4 0 30 0;
#X connect 5 0 2 0;
#X connect 5 0 28 0;
#X connect 6 0 4 0;
#X connect 7 0 24 0;
#X connect 7 0 30 0;
#X connect 8 0 19 0;
#X connect 9 0 20 0;
#X connect 10 0 21 0;
#X connect 11 0 23 0;
#X connect 12 0 22 0;
#X connect 17 0 7 0;
#X connect 18 0 7 0;
#X connect 19 0 7 0;
#X connect 20 0 7 0;
#X connect 21 0 7 0;
#X connect 22 0 7 0;
#X connect 23 0 7 0;
#X connect 24 0 1 0;
#X connect 24 0 1 1;
#X connect 25 0 18 0;
#X connect 26 0 17 0;
#X connect 27 0 0 0;
#X connect 28 0 27 0;
