#N canvas 541 137 682 448 10;
#X obj 74 17 notein;
#X msg 76 78 noteOn \$1 \$2 \$3;
#X obj 76 47 pack f f f;
#X obj 76 109 midi_gates~, f 31;
#X obj 14 73 sig~;
#X obj 14 18 loadbang;
#X obj 16 160 metro 100;
#X obj 90 207 snapshot~;
#X floatatom 94 250 5 0 0 0 - - -, f 5;
#X obj 16 123 tgl 15 0 empty empty empty 17 7 0 10 -262144 -1 -1 1
1;
#X obj 211 73 print;
#X msg 14 42 9;
#X connect 0 0 2 0;
#X connect 0 1 2 1;
#X connect 0 2 2 2;
#X connect 1 0 3 0;
#X connect 2 0 1 0;
#X connect 2 0 10 0;
#X connect 3 7 7 0;
#X connect 4 0 3 0;
#X connect 5 0 11 0;
#X connect 6 0 7 0;
#X connect 7 0 8 0;
#X connect 9 0 6 0;
#X connect 11 0 4 0;
