#N canvas 578 75 749 522 10;
#X obj 89 415 unit_voice~, f 12;
#X obj 92 455 *~ 0.5;
#X obj 85 493 dac~;
#X obj 89 292 notein, f 10;
#X msg 89 339 noteOn \$1 \$2 \$3;
#X obj 35 339 sig~;
#X obj 89 317 pack f f f;
#X obj 89 360 midi_monocv~;
#X obj 35 292 loadbang;
#X msg 35 317 2;
#X obj 78 44 vsl 15 128 0 127 0 1 empty empty empty 0 -9 0 10 -262144
-1 -1 12700 1;
#X obj 7 44 vsl 15 128 0 127 0 1 empty empty empty 0 -9 0 10 -262144
-1 -1 10700 1;
#X obj 29 44 vsl 15 128 0 127 0 1 empty empty empty 0 -9 0 10 -262144
-1 -1 3200 1;
#X obj 54 44 vsl 15 128 0 127 0 1 empty empty empty 0 -9 0 10 -262144
-1 -1 8500 1;
#X text 6 176 Pul;
#X text 29 176 Saw;
#X text 54 176 Tri;
#X text 78 176 Sub;
#X msg 6 198 30 \$1;
#X msg 27 221 31 \$1;
#X msg 57 198 32 \$1;
#X msg 78 221 33 \$1;
#X obj 42 249 s ctl;
#X msg 238 321 controlChange \$1 \$2 0;
#X obj 238 295 r ctl;
#X obj 191 44 vsl 15 128 0 127 0 1 empty empty empty 0 -9 0 10 -262144
-1 -1 12700 1;
#X obj 119 44 vsl 15 128 0 127 0 1 empty empty empty 0 -9 0 10 -262144
-1 -1 6500 1;
#X obj 142 44 vsl 15 128 0 127 0 1 empty empty empty 0 -9 0 10 -262144
-1 -1 0 1;
#X obj 167 44 vsl 15 128 0 127 0 1 empty empty empty 0 -9 0 10 -262144
-1 -1 7200 1;
#X text 119 176 Pul;
#X text 142 176 Saw;
#X text 167 176 Tri;
#X text 191 176 Sub;
#X obj 155 249 s ctl;
#X msg 119 198 34 \$1;
#X msg 140 221 35 \$1;
#X msg 170 198 36 \$1;
#X msg 191 221 37 \$1;
#X obj 236 44 vsl 15 128 0 127 0 1 empty empty empty 0 -9 0 10 -262144
-1 -1 3100 1;
#X obj 259 44 vsl 15 128 0 127 0 1 empty empty empty 0 -9 0 10 -262144
-1 -1 12200 1;
#X obj 284 44 vsl 15 128 0 127 0 1 empty empty empty 0 -9 0 10 -262144
-1 -1 6800 1;
#X obj 272 250 s ctl;
#X msg 236 199 38 \$1;
#X msg 257 222 39 \$1;
#X msg 287 199 40 \$1;
#X text 236 176 Rat;
#X text 259 176 Sha;
#X text 284 176 PW;
#X obj 309 44 vsl 15 128 0 127 0 1 empty empty empty 0 -9 0 10 -262144
-1 -1 6400 1;
#X msg 309 222 41 \$1;
#X obj 287 19 bng 15 250 50 0 empty empty empty 17 7 0 10 -262144 -1
-1;
#X obj 310 19 bng 15 250 50 0 empty empty empty 17 7 0 10 -262144 -1
-1;
#X msg 309 -18 64;
#X msg 287 -15 64;
#X obj 334 44 vsl 15 128 0 127 0 1 empty empty empty 0 -9 0 10 -262144
-1 -1 2500 1;
#X obj 334 19 bng 15 250 50 0 empty empty empty 17 7 0 10 -262144 -1
-1;
#X msg 334 198 42 \$1;
#X msg 334 -17 64;
#X text 306 176 Pit;
#X text 332 176 Flt;
#X obj 386 44 vsl 15 128 0 127 0 1 empty empty empty 0 -9 0 10 -262144
-1 -1 9500 1;
#X obj 410 255 s ctl;
#X obj 409 44 vsl 15 128 0 127 0 1 empty empty empty 0 -9 0 10 -262144
-1 -1 9900 1;
#X obj 434 44 vsl 15 128 0 127 0 1 empty empty empty 0 -9 0 10 -262144
-1 -1 12100 1;
#X text 384 176 Cut;
#X text 406 176 Res;
#X text 432 176 Sha;
#X msg 387 198 44 \$1;
#X msg 409 221 45 \$1;
#X msg 434 197 46 \$1;
#X msg 323 249 43 \$1;
#X obj 260 20 tgl 15 1 empty empty empty 17 7 0 10 -262144 -1 -1 0
1;
#X obj 564 44 vsl 15 128 0 127 0 1 empty empty empty 0 -9 0 10 -262144
-1 -1 9000 1;
#X obj 492 44 vsl 15 128 0 127 0 1 empty empty empty 0 -9 0 10 -262144
-1 -1 0 1;
#X obj 515 44 vsl 15 128 0 127 0 1 empty empty empty 0 -9 0 10 -262144
-1 -1 12000 1;
#X obj 540 44 vsl 15 128 0 127 0 1 empty empty empty 0 -9 0 10 -262144
-1 -1 9400 1;
#X obj 528 246 s ctl;
#X text 492 176 A;
#X text 515 176 D;
#X text 540 176 S;
#X text 564 176 R;
#X msg 492 195 47 \$1;
#X msg 513 218 48 \$1;
#X msg 543 195 49 \$1;
#X msg 564 218 50 \$1;
#X obj 68 385 -~ 1;
#X connect 0 0 1 0;
#X connect 1 0 2 0;
#X connect 1 0 2 1;
#X connect 3 0 6 0;
#X connect 3 1 6 1;
#X connect 3 2 6 2;
#X connect 4 0 7 0;
#X connect 5 0 7 0;
#X connect 6 0 4 0;
#X connect 7 0 85 0;
#X connect 7 1 0 1;
#X connect 7 2 0 2;
#X connect 8 0 9 0;
#X connect 9 0 5 0;
#X connect 10 0 21 0;
#X connect 11 0 18 0;
#X connect 12 0 19 0;
#X connect 13 0 20 0;
#X connect 18 0 22 0;
#X connect 19 0 22 0;
#X connect 20 0 22 0;
#X connect 21 0 22 0;
#X connect 23 0 0 0;
#X connect 24 0 23 0;
#X connect 25 0 37 0;
#X connect 26 0 34 0;
#X connect 27 0 35 0;
#X connect 28 0 36 0;
#X connect 34 0 33 0;
#X connect 35 0 33 0;
#X connect 36 0 33 0;
#X connect 37 0 33 0;
#X connect 38 0 42 0;
#X connect 39 0 43 0;
#X connect 40 0 44 0;
#X connect 42 0 41 0;
#X connect 43 0 41 0;
#X connect 44 0 41 0;
#X connect 48 0 49 0;
#X connect 49 0 41 0;
#X connect 50 0 53 0;
#X connect 51 0 52 0;
#X connect 52 0 48 0;
#X connect 53 0 40 0;
#X connect 54 0 56 0;
#X connect 55 0 57 0;
#X connect 56 0 41 0;
#X connect 57 0 54 0;
#X connect 60 0 67 0;
#X connect 62 0 68 0;
#X connect 63 0 69 0;
#X connect 67 0 61 0;
#X connect 68 0 61 0;
#X connect 69 0 61 0;
#X connect 70 0 41 0;
#X connect 71 0 70 0;
#X connect 72 0 84 0;
#X connect 73 0 81 0;
#X connect 74 0 82 0;
#X connect 75 0 83 0;
#X connect 81 0 76 0;
#X connect 82 0 76 0;
#X connect 83 0 76 0;
#X connect 84 0 76 0;
#X connect 85 0 0 0;
