#N canvas 222 147 998 669 10;
#X floatatom 125 166 5 0 0 0 - - -, f 5;
#X obj 130 294 dac~;
#X obj 23 84 tgl 15 0 empty empty empty 17 7 0 10 -262144 -1 -1 0 1
;
#X obj 124 50 tgl 15 0 empty empty empty 17 7 0 10 -262144 -1 -1 1
1;
#X obj 22 141 metro 500;
#X obj 22 113 sel 1;
#X obj 300 375 unit_drum~, f 35;
#X obj 343 36 vsl 15 128 0 127 0 1 empty empty empty 0 -9 0 10 -262144
-1 -1 4400 1;
#X msg 301 197 controlChange 30 \$1 0;
#X msg 315 219 controlChange 31 \$1 0;
#X msg 335 242 controlChange 32 \$1 0;
#X obj 127 241 *~ 0.9;
#X obj 318 37 vsl 15 128 0 127 0 1 empty empty empty 0 -9 0 10 -262144
-1 -1 0 1;
#X obj 295 36 vsl 15 128 0 127 0 1 empty empty empty 0 -9 0 10 -262144
-1 -1 1600 1;
#X obj 123 132 tgl 15 0 empty empty empty 17 7 0 10 -262144 -1 -1 0
1;
#X obj 122 103 delay 20;
#N canvas 0 22 450 278 (subpatch) 0;
#X array scope 16000 float 2;
#X coords 0 1 16000 -1 200 140 1 0 0;
#X restore 657 50 graph;
#X obj 300 407 tabwrite~ scope;
#X obj 124 71 metro 250;
#X msg 355 264 controlChange 33 \$1 0;
#X obj 367 36 vsl 15 128 0 127 0 1 empty empty empty 0 -9 0 10 -262144
-1 -1 12700 1;
#X connect 0 0 6 0;
#X connect 2 0 5 0;
#X connect 3 0 18 0;
#X connect 4 0 17 0;
#X connect 5 0 4 0;
#X connect 6 0 11 0;
#X connect 6 0 17 0;
#X connect 7 0 10 0;
#X connect 8 0 6 0;
#X connect 9 0 6 0;
#X connect 10 0 6 0;
#X connect 11 0 1 0;
#X connect 11 0 1 1;
#X connect 12 0 9 0;
#X connect 13 0 8 0;
#X connect 14 0 0 0;
#X connect 15 0 14 0;
#X connect 18 0 2 0;
#X connect 18 0 15 0;
#X connect 19 0 6 0;
#X connect 20 0 19 0;
