#N canvas 559 84 592 533 10;
#X obj 155 98 notein;
#X msg 157 164 noteOn \$1 \$2 \$3;
#X obj 157 212 bsp_inst~;
#X obj 114 172 sig~;
#X floatatom 113 143 5 0 0 0 - - -, f 5;
#X obj 156 135 pack f f f;
#X obj 159 480 dac~;
#X obj 165 436 *~ 0.5;
#X obj 233 266 env_adsr~;
#X obj 405 19 vsl 15 128 0 127 0 0 empty empty empty 0 -9 0 10 -262144
-1 -1 1900 1;
#X obj 335 18 vsl 15 128 0 127 0 0 empty empty empty 0 -9 0 10 -262144
-1 -1 0 1;
#X obj 358 19 vsl 15 128 0 127 0 0 empty empty empty 0 -9 0 10 -262144
-1 -1 6300 1;
#X obj 382 19 vsl 15 128 0 127 0 0 empty empty empty 0 -9 0 10 -262144
-1 -1 400 1;
#X msg 336 158 controlChange 1 \$1 0;
#X obj 336 264 s env_ctrl;
#X msg 360 182 controlChange 2 \$1 0;
#X msg 386 203 controlChange 3 \$1 0;
#X msg 412 227 controlChange 4 \$1 0;
#X obj 246 217 r env_ctrl;
#X obj 165 361 *~;
#X obj 165 400 fx_bitcrush~;
#X obj 314 291 vsl 15 128 0 5 0 0 empty empty empty 0 -9 0 10 -262144
-1 -1 600 1;
#X obj 146 247 -~ 2.001;
#X obj 76 246 -~ 1;
#X obj 77 275 osc_saw~;
#X obj 139 273 osc_saw~;
#X connect 0 0 5 0;
#X connect 0 1 5 1;
#X connect 0 2 5 2;
#X connect 1 0 2 0;
#X connect 2 0 22 0;
#X connect 2 0 23 0;
#X connect 2 2 8 0;
#X connect 3 0 2 0;
#X connect 4 0 3 0;
#X connect 5 0 1 0;
#X connect 7 0 6 0;
#X connect 7 0 6 1;
#X connect 8 0 19 1;
#X connect 9 0 17 0;
#X connect 10 0 13 0;
#X connect 11 0 15 0;
#X connect 12 0 16 0;
#X connect 13 0 14 0;
#X connect 15 0 14 0;
#X connect 16 0 14 0;
#X connect 17 0 14 0;
#X connect 18 0 8 0;
#X connect 19 0 20 0;
#X connect 20 0 7 0;
#X connect 21 0 20 1;
#X connect 22 0 25 0;
#X connect 23 0 24 0;
#X connect 24 0 19 0;
#X connect 25 0 19 0;
