#N canvas 642 210 450 300 10;
#X obj 77 78 midi_polycv~, f 31;
#X obj 46 -17 loadbang;
#X obj 110 -17 notein;
#X msg 112 49 noteOn \$1 \$2 \$3;
#X obj 111 20 pack f f f;
#X floatatom 46 28 5 0 0 0 - - -, f 5;
#X obj 46 49 sig~;
#X floatatom 72 180 5 0 0 0 - - -, f 5;
#X obj 70 153 snapshot~;
#X obj 9 124 metro 100;
#X obj 10 87 tgl 15 0 empty empty empty 17 7 0 10 -262144 -1 -1 1 1
;
#X msg 46 7 5;
#X connect 0 4 8 0;
#X connect 1 0 11 0;
#X connect 2 0 4 0;
#X connect 2 1 4 1;
#X connect 2 2 4 2;
#X connect 3 0 0 0;
#X connect 4 0 3 0;
#X connect 5 0 6 0;
#X connect 6 0 0 0;
#X connect 8 0 7 0;
#X connect 9 0 8 0;
#X connect 10 0 9 0;
#X connect 11 0 5 0;
