#N canvas 610 226 450 300 10;
#X obj 75 10 notein;
#X msg 77 76 noteOn \$1 \$2 \$3;
#X obj 76 47 pack f f f;
#X obj 77 124 midi_monocv~;
#X obj 206 125 metro 100;
#X obj 205 97 tgl 15 0 empty empty empty 17 7 0 10 -262144 -1 -1 1
1;
#X obj 79 165 snapshot~;
#X floatatom 80 205 5 0 0 0 - - -, f 5;
#X obj 10 77 loadbang;
#X msg 12 102 9;
#X obj 16 48 print;
#X connect 0 0 2 0;
#X connect 0 1 2 1;
#X connect 0 2 2 2;
#X connect 1 0 3 0;
#X connect 2 0 1 0;
#X connect 2 0 10 0;
#X connect 3 0 6 0;
#X connect 4 0 6 0;
#X connect 5 0 4 0;
#X connect 6 0 7 0;
#X connect 8 0 9 0;
#X connect 9 0 3 0;
